<?xml version="1.0" encoding="UTF-8"?>
<svg id="Calque_1" xmlns="http://www.w3.org/2000/svg" xmlns:xlink="http://www.w3.org/1999/xlink" version="1.1" viewBox="0 0 841.89 595.28">
  <!-- Generator: Adobe Illustrator 29.8.1, SVG Export Plug-In . SVG Version: 2.1.1 Build 2)  -->
  <defs>
    <style>
      .st0, .st1 {
        fill: none;
      }

      .st1 {
        stroke: #1d1d1b;
        stroke-width: .18px;
      }

      .st2 {
        fill: #1d1d1b;
      }

      .st3 {
        clip-path: url(#clippath);
      }
    </style>
    <clipPath id="clippath">
      <rect class="st0" x="137.81" y="10.68" width="575.69" height="575.69"/>
    </clipPath>
  </defs>
  <g class="st3">
    <circle class="st1" cx="425.65" cy="298.52" r="287.55"/>
    <path class="st2" d="M406.84,99.99c3.31,2.56,7.63,11.28,8.89,15.41.23.76-.33,1.61-.21,2.07.22.79,1.52.67,1.69,1.38.39,1.58.29,3.75,1.2,5.57,6.85-6.62,12.86-13,21.87-16.81,13.45-5.69,23.71-4.64,34.26,5.68,6.56,6.42,9.18,13.17,9.27,22.26.01,1.46-4.05,14.59-4.81,16.03-.51.95-1.77.56-2.28,1.17-.15.19-1.5,4.48-1.33,4.66,1.1.02,2.15.33,3.16.74,14.11,5.82,22.2,16.52,30.44,28.5.82,1.2,1.15,4.09,1.32,4.26.27.27,1.34-.19,1.7.47.46.84,4.68,14.63,4.77,15.57.98,10.19-15.83,21.43-24.95,21.78-1.53.06-3.33-.95-5.03-.54,4.82,6.5,9.88,16.15,12.4,23.89,3.37,10.34,2.69,18.73-8.49,22.91-5.98,2.24-9.53,2.47-15.45-.17-3.15-1.41-16.29-11.33-14.59-14.82,2.09-3.37,5.65-1.52,8.72-.31,3.03,1.19,5.08,3.42,8.52,3.15,17.36-1.35,9.8-16.81,3.97-26.44-5.46-9.01-12.14-11.48-17.53-18.47-1.68-2.18-4.04-5.24-2.1-8,.83-1.19,4.71-.97,6.02-.61,1.79.49,6.65,3.6,8.04,3.86,2.67.5,10.54,1.39,13.04,1.04,3.93-.54,13.49-7.13,15-10.79,2.64-6.42-7-20.24-11.53-24.76-5.2-5.2-12.51-8.99-20.07-8.03-3.56.45-8.52,3.73-11.77,2.68-2.16-.7-8.01-8.81-6.71-11.54,3.31-5.23,7.67-10.34,10.82-15.6,6.38-10.64,14.33-27.37-5.05-28.9-11.57-.92-27.46,10.48-33.11,20.13-2.88,4.92-6.27,17.88-13.55,8.54-4.2-5.39-3.77-15.62-5.44-22.75-1.34-5.72-3.24-17.77-11.25-14.23-2.54,1.12-5.05,3.65-6.58,6.02-.66,1.03-.81,2.64-1.4,3.4-.73.96-1.9.7-2.66,1.71-2,2.67-.45,5.08-1.22,7.92l-1.19-1.79c-1.7,9.39-2.08,19.49-.44,28.93.47,2.68,1.66,9.26,2.85,11.39.65,1.15,3.6,2.77,3.58,4.98-1.41,2.18-2.22,5.87-5.55,5.57-2.33-.21-9.97-4.42-13.18-5.46-5.65-1.83-12.56-3.83-18.36-2.73-3.4,6.48.43,13.65,1.72,20.28h2.09c-.33,4.04,1.71,7.64,3.88,10.95,2.42,3.7,10.09,12.41,13.65,14.84,2.49,1.7,5.69,2.08,8.25,3.62l.62-1.24,6.28,1.5c-.04,1.59,2.16,2.59,2.31,3.11.05.15.2,3.11.07,3.2-.18.12-1.11-.19-1.6.18-.43.32-.45,1.29-1.17,1.55-1.09.39-2.64-.03-3.82.1-.32,2.01,1.65.63,2.56,2.53,2.61,5.47-3.32,8.56-4.76,12.96-1.23,3.73-.28,6.58-.78,9.3-.1.55-1.69.14-1.23,1.9.06.23,1.13.23,1.22.7.26,1.24-.46,3.3-.36,4.75.29,4.64.52,9.72,2.16,14.04,1.01.27.27-1.15.94-1.24,1.7-.26,2.89,1.21,3.59,2.49,2.29.19,6.45-7.78,7.56-9.83,2.14-3.94,2.12-9.31,8.95-7.35,1.51.44,1.33,1.85,2.36,2.43.5.29,3.34.23,4.04,1.05,2.29,2.69-1.33,9.32-1.67,12.14-.63,5.21,2.69,15.74,6.3,19.53,2.64,2.77,5.16,2.71,7.48,4.5,2.92,2.27.76,2.68.63,4.19-.18,2.22,1.66,4.92-3.32,5.12-10.95.46-19.76-11.94-22.47-21.39-4.17.89-7.57,2.94-11.82,1.06-8.15-3.6-16.04-18.27-16.91-26.88-.55-5.39.19-19.36,3.02-23.82,2.73-4.3,7.46-4.42,8.9-8.79-12.57-1.98-22.15-13.78-28.29-24.2-5.24-8.89-14.31-28.83-11.75-38.95.88-3.48,4.89-4.36,7.96-4.64,8.58-.78,16.69,2.31,24.88,4.18-.95-3.73-1.98-7.88-2.39-11.7-1.9-17.82-.77-36.08,12-49.77,3.96-4.24,8.64-6.08,14.64-5.08.51.09,8.2,3.45,8.57,3.74"/>
    <path class="st2" d="M495.94,427.19c.04.13.92.15,1.03.58.76,3.05-1.42,6.81-1.09,8.16.35,1.47,3.02,2.47,3.78,3.45.75.95.88,2.88,1.5,3.33.54.38,2.72-.47,3.91-.4,5.49.33,10.93,14.07,17.25,12.51,4.13-1.01,11.17-16.5,12.47-20.87,7.53.56,6.45,9.22,8.64,14.47,1.1.96,2.84-.34,4.23-.36,5.89-.08,7.5,7.55,12.65,9.26.42.56-1.17,6.4-1.58,7.49-2.08,5.46-7.94,3.8-9.96-.91-6.77,2.78-8.92-2.39-13.39-5.96-1.76,5.72-6.17,11.45-12.46,12.47-6.8,1.1-11.74-6.58-15.96-10.45-3.94-3.62-4.21-.7-7.98.17-1.87.43-4.41-.6-5.17-2.33-.99-2.25-.51-4.02-1-6.17-3.57.39-5.23-1.75-8.17-1.87-.25.82-1.72,2.07-1.88,2.34-.23.39,1.38,1.17-1.92,1.72.98,2.9-.39,3.68-1.73,5.78-.41.65-.38,1.83-.66,2.21-.55.77-1.86.04-2.37.44-.17.14-1.1,3.22-1.65,4.07-2.41,3.71-4.7,6.46-7.72,9.68-3.35,3.58-8.37,10.59-13.35,11.82-6.4,1.58-7.42-6.85-5.23-11.19,1.47-2.91,4.58-4.38,6.57-6.66,11.6-13.28,22.6-30.86,30.99-46.4,1.31-2.43,1.57-6.76,4.98-6.44,2.04.19,4.72,6.45,5.37,8.38.14.43-.29,1.03-.11,1.68"/>
    <path class="st2" d="M457.99,416.56c-1.18.41-1.18,2.09-2.25,3.01-.59.51-4.02,2.14-4.34,1.79-1.39-8.14,1.93-17.64,5.1-25.19,8.57-20.38,33.4-48.51,51.32-61.45,3.12-2.26,6.68-5.17,10.48-2.78.87,1.22.3,12.9-1.07,14.3-.47.48-2.89.96-4.03,1.67-2.13,1.33-6.24,5.3-7.87,5.97-.79.33-1.68-.37-1.74-.31-.11.11,0,1.46-.57,2.15-.61.75-1.8.62-2.26,1.04-13.92,12.91-26.89,28.44-36.73,45.88l-3.03,7.65c-.26.77.13,1.15.86.86,1.16-.46,5.98-4.33,7.19-5.41,4.86-4.3,11.69-11.38,16.22-16.16,7.69-8.13,14.57-17.26,19.47-27.33,1.44-.95,3.54.55,4.24,1.79,2.43,4.31-.64,8.43-2.08,12.4-1.26,3.47-1.55,5.23-3.7,8.89-5.48,9.32-27.13,33.64-36.28,38.71-.23.13-4.35,1.97-4.59,2.04-1.52.45-2.9-.54-4.37-.51v-9Z"/>
    <path class="st2" d="M443.52,241.5c.33.56-.42,1.63-.21,2.36.59,2.04,2.02,3.66,2.11,6.26.07,1.98-.81,3.7-.62,5.67l1.19-.61c1.11,2.44-1.13,3.79-1.19,4.01-1.46,6.45.67,11.31.54,16.63-.15,5.67-.55,11.55-.57,17.43-.03,7.34.28,14.72-.24,22.03.21,2.72,3.13,2.66,3.25,3.22l-.59,4.47-1.79-1.8c-.34,1.96.29,3.82.46,5.71.62,6.71-.9,14.51.1,21.62.21,1.44,1.23,2.29,1.3,3.57.1,1.73-1.13,2.53-1.13,3.47,0,2.85.42,6.7.46,9.77.08,5.65-.31,11.47,0,17.05l1.19-1.19v3.59l-1.19-1.79v3.89s1.19-1.49,1.19-1.49v9.89s-1.19-.3-1.19-.3c-.42,2.04.42,4.35.38,6.21-.38,14.97-.35,30.54-2.15,45.12-.61,4.97-1.14,9.93-1.91,14.88l-4.11,2.18c-.28-1.45-1.41-2.45-1.85-3.86-1.49-4.77-.12-20.4.01-26.46,1.44-62.8-2.3-125.92-1.21-188.98.12-1.71,2.33-2.99,3.45-4.4l4.31,1.85Z"/>
    <path class="st2" d="M432.2,231.19c.35-1.38-1.04-2.23-1.2-3.34-.4-2.74,3.03-7.52,4.06-10.3,3.24-8.77,2.94-23.6-7.64-26.86-8.99-2.76-13.26,4.49-12.52,12.53.56,6.24,6.06,18.61,10.42,23.16.7.73,6.26,5.45,6.89,4.8M448.23,220.24c-.61,1.28-.39.97-.9,2.37-2.53,7.03-10.87,17.95-19.34,14.28-5.21-2.26-13.58-13.45-16.3-18.48-4.79-8.87-8.06-17.47-6.44-27.66.83-5.21,3.44-9.12,8.68-10.51,14.26-3.78,26.81,6.03,32.3,18.62,1.47,3.38,3.38,18.47,1.99,21.38"/>
    <path class="st2" d="M386.22,443.97c.32.45,1.04.27,1.61,1.67,2.71,6.68,1.39,16.01,5.38,22.22l1.21-2.1c3.99.15,5.61,4.32,5.99,7.79,3.07-1.17,4.25-3.02,7.96-2.26,2.71.55,5.14,4.05,6.86,4.54,1.98.55,4.56-.54,6.21,1.61.45.59.39,1.69.73,1.99.72.63,2.07-.97,1.6,2.18-.47,3.18-3.74,10.23-7.81,9.63-3.48-.52-7.89-5.59-9.28-5.72-2.27-.21-3.83,3.3-5.79,3.87-6.3,1.84-7.95-11.62-8.28-15.83l-3.38,4.16c-6.64-.24-5.47-18.12-7.72-19.16-.75.84-1.02,2.2-1.83,3.02-.51.51-1.08-.08-1.48.36-2.63,2.86-2.03,3.73-5.68,6.82-1.25,1.06-2.25,3.14-3.89,2.76-2.22-.52-3.36-2.08-3.62-4.25-1.11-9.42,1.62-8.26,6.58-13.98,1.79-2.06,8.59-12,9.65-12.44,2.83-1.17,3.96,1.67,4.98,3.13"/>
    <path class="st2" d="M325.03,463.15c1.97,1.36,3.59,1.98,4.01,5.01,4.33-1.73,6.94-6.07,11.94-3.25,1.44.81,2.47,3.05,4.21,3.59,1.47.45,2.96.1,4.39.4,2.7.57,4.25,2.84,6.38,4.45-.58,1.86-.22,4.83-1.11,6.39-.1.17-2.64,2.66-2.82,2.73-2.8.99-8.01-.37-10.6-1.83-1.63-.92-2.17-1.93-3.6-2.82-4.54,2.5-8.31,8.08-13.02,2.06-1.46-1.87-1.45-4.16-2.32-6.07-.32-.7.29-1.09-1.25-.84,0,.74-.11,1.55-.48,2.21-2.73,4.87-17.21,23.13-21.72,25.09-7.39,3.21-8.91-3.66-7.79-9.58.33-1.7,8.4-7.72,10.49-9.9,5.08-5.31,9.18-11.67,13.86-17.33,3.36-2.2,2.58,1.93,4.67,1.07,1.08-.44,1.42-3.02,3.06-2.99,1.14-.1,1.15,1.26,1.69,1.64"/>
    <path class="st2" d="M394.41,381.77l-1.81-.89c.73,8.66,2.72,16.62,5.9,24.69,3.89,9.84,10.75,22.34,17.79,30.2,4.1,4.58,9.13,8.5,13.2,13.17-2.09,8.62-5.67,6.17-10.81,1.84-15.93-13.45-30.85-43.88-34.78-64.2-.57-2.96-2.68-16.24-.75-17.86,4.62-2.61,6.94.78,9.36,4.45,2.15,3.26,2.4,4.63,1.89,8.6"/>
    <path class="st2" d="M430.53,421.21c1.69,3.21.98,2.23,1.81,5.71.44,1.83,2.13,4.89,1.69,6.62-.15.56-1.22.58-1.48,1.04-1.14,2.08-1.37,5.74-4.91,4.22-4.86-2.08-7.81-21.1-9.42-26.57-2.55-8.74-8.18-24.32-13.62-31.37-4.04-5.24-10.86-6.04-11.89-13.96-.45-3.48,4.12-5.15,6.48-4.04.68.32,7.03,5.72,7.84,6.57,9.84,10.35,18.42,32.17,22.59,45.79.45,1.46.76,5.71.9,5.98"/>
  </g>
</svg>